<?xml version="1.0" encoding="utf-8"?>
<!-- Generator: Adobe Illustrator 22.1.0, SVG Export Plug-In . SVG Version: 6.00 Build 0)  -->
<svg version="1.1" xmlns="http://www.w3.org/2000/svg" xmlns:xlink="http://www.w3.org/1999/xlink" x="0px" y="0px"
	 viewBox="0 0 1000 1000" style="enable-background:new 0 0 1000 1000;" xml:space="preserve">
<style type="text/css">
	.st0{fill:#FFFFFF;}
	.st1{fill:#DD969C;}
</style>
<g id="Capa_4">
	<rect class="st0" width="1000" height="1000"/>
</g>
<g id="Capa_2">
	<g>
		<g>
			<path class="st1" d="M848.4,773.6c-16.2,8.6-49.5,29.2-68.9,18.3c-16.6-9.3-18.4-43.6-19.9-59.5c-7.7-80.6,4.3-163.7,10-244
				c3-42-56.4-44.4-69.2-9.4c-21.6,59.3-44.5,118.3-73.7,174.3c-15,28.9-31.9,64.1-58.4,84.7c-0.8,0.7-1.5,1.1-2.2,1.5
				c-0.2-0.4-0.4-0.7-0.6-1.3c-11.2-21.9-15.2-48.6-17.7-73.8c-3.8-38-57.3-49.6-69.2-9.4c-9.4,31.9-21.2,63.4-35.1,93.6
				c-18.5,40.6-45.4,103.3-89.2,122.8C297.2,896.9,268.7,813,259,773c-6.6-27.4-10.9-55.7-13.4-84.2
				C398.9,653.6,544.5,562,621.7,429.4c40.1-68.9,65.2-155.7,39.8-234.1C637.1,120,565.1,63,486.4,54.8
				C304.4,36,218.8,272.1,191.8,412.1c-13.7,71-20.5,144.6-19,217.6c-36.3,4.5-72.5,5.6-107.5,2.8c-45.2-3.5-45,66.9,0,70.4
				c36.5,2.8,74,1.9,111.6-2.5c1.7,18.1,4,36.1,6.9,54c11.6,71.8,40.6,164.6,119.6,186.9c98.3,27.8,164.9-68.5,205.7-162.5
				c16.8,26.8,42.1,42.3,80.3,27.4c36.9-14.5,62-54.1,81.2-86.6c4.8-8.1,9.4-16.3,13.8-24.5c1,33.8,5.2,66.7,15.3,97.4
				c29.5,89.1,114.7,78.6,184.1,41.9C924.1,813.2,888.5,752.4,848.4,773.6z M248.4,510.3c8.3-87.2,28.5-177.2,68.5-255.7
				c25.9-50.7,63.7-107.9,121-125.8c55.8-17.4,121.5,17.3,148,67.5c28.9,54.9,13.2,123-13.1,175.6c-62.4,125.1-192,210-330.1,244.6
				C242.9,580.7,245.1,545,248.4,510.3z M564,740.6C561.6,741.5,561.5,740.2,564,740.6L564,740.6z M567.8,742.6c0-0.1-0.2-0.4-0.4-1
				c0.3,0.2,0.6,0.2,1,0.4C567.5,741.6,567.7,742.4,567.8,742.6z"/>
			<path class="st1" d="M941.2,735.9c-15.1,0-27.3,12.2-27.3,27.3c0,15.1,12.2,27.3,27.3,27.3c15.1,0,27.3-12.2,27.3-27.3
				C968.5,748.1,956.3,735.9,941.2,735.9z"/>
		</g>
	</g>
</g>
</svg>
